<?xml version="1.0" encoding="UTF-8"?>
<svg id="Layer_1" data-name="Layer 1" xmlns="http://www.w3.org/2000/svg" style="width: 140px; height: 48px;" viewBox="0 0 675.8 121.4">
  <g>
    <path d="M143.8,102.7l-6.8,18.7h-32.9L150.8,0h30.2l46.4,121.4h-32.9l-6.8-18.7h-44ZM165.8,39.4l-14.2,40.1h28.4l-14.2-40.1Z" style="fill: #0044f4; stroke-width: 0px;"/>
    <path d="M237.6,0h30.2l35.5,55.1L338.9,0h30v121.4h-30V54.4l-35.5,54.9-35.5-54.9v67h-30.2V0Z" style="fill: #0044f4; stroke-width: 0px;"/>
    <path d="M378.7,0h33.1l28.8,82L469.1,0h33.1l-46.6,121.4h-30.2L378.7,0Z" style="fill: #0044f4; stroke-width: 0px;"/>
    <path d="M512.1,121.4V0h30.2v121.4h-30.2Z" style="fill: #0044f4; stroke-width: 0px;"/>
    <path d="M592,102.7l-6.8,18.7h-32.9L599,0h30.2l46.4,121.4h-32.9l-6.8-18.7h-44ZM614,39.4l-14.2,40.1h28.4l-14.2-40.1Z" style="fill: #0044f4; stroke-width: 0px;"/>
  </g>
  <path d="M100.9,39.4L61.9,3.4c-2.4-2.2-5.4-3.4-8.7-3.4H0v121.4h53.6c27.6,0,50-22.2,50.3-49.8l.2-24.8c0-2.8-1.1-5.5-3.2-7.4ZM53.4,94.9h-23.2V26.5h21.9v24.9c0,2,1.6,3.7,3.7,3.7h24.2c.2,1.9.3,3.8.3,5.7,0,18.7-8,34.1-26.9,34.1Z" style="fill: #0044f4; stroke-width: 0px;"/>
</svg>