<svg viewBox="0 0 189 173" fill="none" xmlns="http://www.w3.org/2000/svg">
<path d="M139.443 58.3386L106.822 25.7178C106.362 25.2582 105.739 25 105.089 25H59.1234C53.5413 25 49 29.5413 49 35.1234V138.877C49 144.459 53.5413 149 59.1234 149H130.037C135.619 149 140.16 144.459 140.16 138.877V60.0714C140.16 59.4216 139.902 58.798 139.443 58.3386ZM107.54 33.3673L131.793 57.6202H112.762C109.882 57.6202 107.54 55.2778 107.54 52.3982V33.3673H107.54ZM135.259 138.877C135.259 141.756 132.917 144.099 130.037 144.099H59.1234C56.2441 144.099 53.9014 141.756 53.9014 138.877V35.1234C53.9014 32.2441 56.2441 29.9014 59.1234 29.9014H102.638V52.3987C102.638 57.9809 107.179 62.5221 112.761 62.5221H135.259V138.877Z" />
<path d="M114.185 87.2451H74.9753C73.622 87.2451 72.5246 88.3424 72.5246 89.6958C72.5246 91.0491 73.622 92.1465 74.9753 92.1465H114.185C115.539 92.1465 116.636 91.0491 116.636 89.6958C116.636 88.3424 115.539 87.2451 114.185 87.2451Z" />
<path d="M114.185 98.191H74.9753C73.622 98.191 72.5246 99.2884 72.5246 100.642C72.5246 101.995 73.622 103.092 74.9753 103.092H114.185C115.539 103.092 116.636 101.995 116.636 100.642C116.636 99.2884 115.539 98.191 114.185 98.191Z" />
<path d="M114.185 109.137H74.9753C73.622 109.137 72.5246 110.234 72.5246 111.588C72.5246 112.941 73.622 114.038 74.9753 114.038H114.185C115.539 114.038 116.636 112.941 116.636 111.588C116.636 110.234 115.539 109.137 114.185 109.137Z" />
<path d="M101.442 120.083H74.9753C73.622 120.083 72.5246 121.18 72.5246 122.534C72.5246 123.887 73.622 124.984 74.9753 124.984H101.442C102.796 124.984 103.893 123.887 103.893 122.534C103.893 121.18 102.796 120.083 101.442 120.083Z" />
</svg>
