<svg width="286" height="286" viewBox="0 0 286 286" fill="none" xmlns="http://www.w3.org/2000/svg">
<g clip-path="url(#clip0_1195_7739)">
<path d="M42.3037 142.933C42.3037 106.706 42.5703 70.4786 42.0372 34.1181C41.9039 23.4629 45.1027 19.7337 56.1653 20C83.3552 20.666 110.545 19.7337 137.868 20.3996C143.733 20.5328 150.93 23.0634 155.195 27.059C182.519 52.2318 209.442 77.6708 235.832 103.776C240.097 108.038 242.896 115.497 243.429 121.756C244.629 134.01 243.829 146.53 243.696 158.783C243.563 218.052 203.044 261.871 143.866 265.068C113.477 266.666 82.8221 265.334 52.3 265.734C42.5703 265.867 42.0372 260.273 42.1705 252.947C42.3037 216.187 42.1705 179.56 42.1705 142.8L42.3037 142.933ZM84.9546 58.4916C84.9546 113.365 84.8214 166.108 85.3545 218.851C85.3545 221.515 91.219 226.31 94.5511 226.576C109.745 227.375 125.073 227.242 140.268 226.976C171.189 226.31 198.646 200.071 200.379 169.172C201.178 155.986 200.379 142.8 200.779 129.615C201.045 122.023 197.713 119.359 190.516 119.492C177.72 119.759 164.925 118.959 152.13 119.759C142.533 120.291 138.668 117.228 139.068 107.372C139.601 94.1863 139.601 81.0006 138.801 67.8149C138.668 64.6183 134.67 59.2908 132.137 59.1576C117.076 58.3584 101.882 58.758 85.0879 58.758L84.9546 58.4916Z" fill="white"/>
</g>
<defs>
<clipPath id="clip0_1195_7739">
<rect width="202" height="246" fill="white" transform="translate(42 20)"/>
</clipPath>
</defs>
</svg>
